<?xml version="1.0" standalone="no"?>
<!DOCTYPE svg PUBLIC "-//W3C//DTD SVG 20010904//EN"
 "http://www.w3.org/TR/2001/REC-SVG-20010904/DTD/svg10.dtd">
<svg version="1.0" xmlns="http://www.w3.org/2000/svg"
 width="980.000000pt" height="980.000000pt" viewBox="0 0 980.000000 980.000000"
 preserveAspectRatio="xMidYMid meet">

<g transform="translate(0.000000,980.000000) scale(0.100000,-0.100000)"
fill="#000000" stroke="none">
<path d="M2620 9184 c-154 -41 -289 -154 -357 -301 -39 -83 -53 -174 -53 -340
l0 -153 -359 0 c-390 0 -466 -7 -610 -57 -357 -122 -614 -402 -720 -782 l-26
-96 -3 -2645 c-2 -2343 -1 -2656 13 -2744 35 -227 133 -423 294 -589 217 -224
456 -328 792 -344 l125 -6 29 -56 c41 -80 155 -190 235 -229 130 -63 116 -62
870 -62 754 0 753 0 873 62 34 18 65 33 70 33 4 0 16 -13 27 -30 66 -101 204
-198 326 -230 86 -22 1421 -23 1507 0 135 35 256 122 337 243 l15 23 66 -35
c123 -66 119 -66 879 -66 754 0 740 -1 870 62 80 39 192 148 235 230 l30 58
73 0 c326 0 591 104 814 318 175 168 284 376 323 613 13 83 15 411 15 2705 0
2305 -2 2622 -15 2700 -76 438 -387 775 -826 895 -80 22 -104 23 -480 27
l-397 3 -4 182 c-4 149 -9 194 -27 248 -56 174 -208 317 -387 364 -272 71
-563 -92 -657 -368 -5 -18 -13 -120 -16 -227 l-6 -195 -521 -3 -521 -2 -5 182
c-5 153 -9 194 -28 248 -130 384 -604 507 -892 233 -72 -70 -113 -132 -145
-225 -22 -65 -26 -94 -31 -256 l-5 -182 -521 2 -521 3 -6 195 c-3 107 -11 209
-16 227 -60 177 -213 322 -388 368 -73 19 -202 18 -275 -1z m212 -264 c68 -19
130 -71 166 -139 l32 -63 0 -513 c0 -320 4 -524 10 -540 20 -53 70 -85 132
-85 41 0 54 5 86 34 l37 34 5 234 5 233 523 3 522 2 0 -202 c0 -112 5 -220 10
-240 6 -20 26 -50 46 -67 65 -58 165 -36 204 44 19 40 20 64 20 546 0 316 4
518 10 541 25 89 129 173 228 185 107 12 214 -41 269 -135 l28 -47 5 -535 c5
-585 4 -572 65 -610 51 -32 116 -27 159 11 20 17 40 47 46 67 5 20 10 128 10
240 l0 202 523 -2 522 -3 5 -232 5 -233 32 -31 c41 -42 120 -51 169 -21 65 41
64 36 65 604 0 366 4 522 12 545 22 60 72 117 128 148 46 26 64 30 129 30 88
0 152 -27 202 -84 69 -79 68 -61 68 -621 0 -311 4 -519 10 -542 6 -20 26 -50
46 -67 65 -58 165 -36 204 44 18 37 20 63 20 254 l0 212 378 -4 c342 -3 384
-6 449 -24 152 -43 275 -117 384 -230 109 -113 170 -219 211 -372 17 -64 21
-116 25 -318 l5 -243 -4141 0 -4141 0 0 194 c0 227 11 320 49 433 77 224 263
418 482 503 142 54 194 60 575 60 l344 0 0 -210 c0 -169 3 -217 16 -250 33
-82 141 -108 208 -49 20 17 40 47 46 67 6 23 10 229 10 540 0 429 2 508 15
539 55 130 194 200 327 163z m6208 -4492 c0 -1430 -4 -2258 -10 -2303 -48
-336 -305 -619 -630 -694 -109 -25 -206 -30 -204 -10 1 8 48 133 104 279 142
371 143 373 138 450 -7 93 -47 178 -114 239 -52 48 -67 55 -259 126 -55 21
-152 64 -215 97 -110 57 -303 178 -315 198 -3 5 13 36 35 69 58 84 106 194
124 283 22 105 23 610 1 710 -17 81 -51 169 -96 246 -43 73 -178 207 -251 251
-299 175 -667 139 -913 -91 -105 -98 -168 -198 -217 -343 -22 -68 -23 -80 -23
-415 0 -310 2 -351 19 -405 28 -88 62 -160 112 -231 24 -34 44 -65 44 -68 0
-10 -161 -117 -266 -175 -60 -34 -171 -86 -244 -115 -130 -53 -135 -54 -165
-39 -43 23 -192 122 -205 138 -8 10 0 29 35 78 57 82 91 158 115 261 17 71 20
118 20 371 0 311 -7 369 -53 485 -14 33 -40 86 -58 117 -45 76 -170 200 -246
247 -388 234 -886 92 -1084 -309 -71 -146 -79 -197 -79 -534 0 -324 6 -377 58
-500 16 -39 51 -99 76 -135 25 -36 46 -68 46 -73 0 -7 -181 -129 -225 -151
-17 -8 -47 0 -152 42 -72 30 -171 75 -220 101 -92 50 -278 169 -287 184 -3 5
16 42 43 82 27 41 61 103 76 138 49 117 55 171 55 491 0 349 -6 388 -81 539
-44 89 -65 118 -138 191 -97 98 -186 154 -316 197 -71 23 -96 27 -220 27 -120
1 -150 -2 -215 -22 -278 -88 -477 -302 -535 -580 -22 -100 -21 -605 1 -710 18
-90 64 -194 123 -281 23 -34 39 -66 35 -72 -12 -21 -218 -149 -324 -203 -58
-29 -150 -70 -205 -91 -194 -72 -210 -80 -254 -120 -109 -100 -147 -239 -102
-373 15 -44 186 -494 226 -594 6 -16 0 -18 -56 -18 -151 0 -352 79 -486 190
-155 128 -264 325 -293 525 -11 79 -14 4517 -3 4528 3 4 1866 7 4140 7 l4133
0 0 -2232z m-6099 -228 c179 -33 337 -182 385 -363 20 -75 19 -561 -1 -636
-49 -187 -207 -331 -398 -364 -195 -33 -412 74 -504 249 -56 106 -63 151 -63
425 0 135 4 271 10 300 15 84 72 188 136 252 117 116 276 167 435 137z m4118
-5 c141 -34 263 -130 326 -259 49 -99 55 -146 55 -416 0 -130 -4 -262 -10
-291 -15 -82 -74 -193 -135 -254 -61 -61 -172 -120 -254 -135 -256 -48 -499
109 -567 365 -10 36 -14 126 -14 315 0 189 4 279 14 315 37 142 130 256 257
319 114 56 211 68 328 41z m-2000 -196 c153 -53 274 -186 316 -346 18 -70 21
-532 4 -615 -56 -269 -336 -442 -604 -373 -174 46 -317 197 -354 373 -18 85
-14 545 4 617 73 278 364 437 634 344z m-2444 -1400 c165 -58 372 -51 528 19
l58 25 27 -21 c83 -66 250 -173 368 -237 l135 -73 -53 -17 c-76 -25 -128 -57
-177 -110 -66 -72 -85 -123 -85 -235 l0 -95 123 -315 c152 -388 151 -383 126
-410 -10 -11 -43 -32 -74 -48 l-56 -27 -685 0 c-680 0 -685 0 -732 22 -82 37
-121 89 -176 231 -312 809 -316 821 -300 856 14 29 27 37 110 65 218 76 458
202 648 341 52 38 102 67 110 65 8 -2 56 -19 105 -36z m4100 0 c162 -57 352
-51 519 16 l66 27 73 -55 c197 -148 481 -296 715 -372 43 -14 56 -24 69 -51
16 -33 16 -34 -67 -251 -314 -821 -294 -779 -398 -830 l-57 -28 -690 0 c-655
0 -692 1 -725 19 -58 31 -100 66 -100 84 0 9 60 172 133 362 l132 345 -1 90
c0 80 -3 96 -31 150 -32 62 -98 132 -149 158 -16 8 -53 22 -83 32 l-53 17 112
59 c123 65 271 158 358 226 32 25 63 42 72 39 8 -3 56 -20 105 -37z m-2055
-182 c72 -26 103 -31 207 -35 133 -5 221 9 327 53 l58 24 72 -54 c197 -148
428 -268 727 -379 35 -12 50 -25 59 -47 15 -35 35 25 -196 -579 -79 -206 -156
-393 -172 -415 -36 -52 -95 -92 -157 -105 -35 -8 -256 -10 -715 -8 l-665 3
-49 25 c-62 32 -108 85 -140 163 -61 150 -336 877 -336 891 0 35 48 66 170
112 220 82 445 204 615 333 49 37 86 58 95 54 8 -3 53 -19 100 -36z"/>
<path d="M1463 6031 c-97 -44 -102 -181 -9 -237 29 -18 57 -19 446 -19 384 0
418 1 443 18 66 43 85 127 44 188 -46 69 -46 69 -487 69 -366 0 -398 -2 -437
-19z"/>
<path d="M2962 6029 c-51 -25 -72 -62 -72 -123 0 -57 43 -111 101 -126 25 -7
178 -10 432 -8 359 3 395 5 420 21 69 45 88 140 40 198 -50 58 -54 59 -485 59
-380 0 -394 -1 -436 -21z"/>
<path d="M4483 6043 c-12 -2 -38 -22 -57 -44 -31 -34 -36 -46 -36 -89 0 -41 5
-55 31 -84 17 -20 47 -40 67 -46 22 -6 188 -10 412 -10 224 0 390 4 412 10 20
6 50 26 67 46 58 65 36 165 -44 204 -39 19 -62 20 -436 19 -217 -1 -404 -4
-416 -6z"/>
<path d="M5975 6036 c-17 -7 -44 -28 -59 -47 -25 -29 -28 -39 -24 -86 3 -38
11 -61 29 -79 48 -53 57 -54 481 -54 370 0 394 1 433 20 50 24 75 65 75 120 0
55 -25 96 -75 120 -39 19 -63 20 -436 20 -305 -1 -401 -4 -424 -14z"/>
<path d="M7475 6036 c-103 -46 -113 -181 -18 -243 25 -17 59 -18 443 -18 389
0 417 1 446 19 93 56 88 193 -9 237 -39 17 -70 19 -437 18 -307 0 -402 -3
-425 -13z"/>
<path d="M1443 5338 c-81 -57 -71 -186 17 -230 32 -16 74 -18 434 -18 382 0
402 1 442 20 91 45 100 169 15 229 -28 20 -40 21 -453 21 -423 0 -423 0 -455
-22z"/>
<path d="M2929 5321 c-35 -34 -39 -44 -39 -87 0 -61 25 -105 73 -127 31 -15
82 -17 437 -17 446 0 450 1 490 65 39 63 14 160 -50 192 -19 10 -130 13 -449
13 l-423 0 -39 -39z"/>
<path d="M4434 5327 c-31 -28 -37 -42 -41 -83 -7 -68 15 -110 70 -135 39 -17
71 -19 440 -19 379 0 400 1 437 20 88 45 95 165 14 229 -26 21 -36 21 -455 21
l-429 0 -36 -33z"/>
<path d="M5946 5339 c-81 -64 -71 -191 18 -233 30 -14 88 -16 436 -16 355 0
406 2 437 17 48 22 73 66 73 127 0 43 -4 53 -39 87 l-39 39 -429 0 c-421 0
-431 0 -457 -21z"/>
<path d="M7444 5335 c-81 -64 -67 -181 28 -231 22 -11 103 -14 430 -14 374 0
406 1 438 19 89 47 98 173 17 229 -33 22 -34 22 -458 22 l-424 0 -31 -25z"/>
</g>
</svg>
